# xmcd
#
# Track frame offsets: 
#        150
#        18490
#        34422
#        49247
#        63942
#        81035
#        99107
#        113460
#        128915
#        143065
#
# Disc length: 2056 seconds
#
# Revision: 1
# Processed by: cddbd v1.5.2PL0 Copyright (c) Steve Scherf et al.
# Submitted via: ExactAudioCopy v1.0b3
#
DISCID=7a08060a
DTITLE=Crystal Gayle - Super Hits
DYEAR=1998
DGENRE=Pop
TTITLE0=Half The Way
TTITLE1=It's Like We Never Said Goodbye
TTITLE2=The Blue Side
TTITLE3=If You Ever Change Your Mind
TTITLE4=Too Many Lovers
TTITLE5=Take It Easy
TTITLE6=You Never Gave Up On Me
TTITLE7=Livin' In These Troubled Times
TTITLE8=Keepin' Power
TTITLE9=The Woman In Me
EXTD=
EXTT0=
EXTT1=
EXTT2=
EXTT3=
EXTT4=
EXTT5=
EXTT6=
EXTT7=
EXTT8=
EXTT9=
PLAYORDER=
